G04 #@! TF.GenerationSoftware,KiCad,Pcbnew,5.1.6*
G04 #@! TF.CreationDate,2020-07-06T21:48:25+02:00*
G04 #@! TF.ProjectId,luminaire,6c756d69-6e61-4697-9265-2e6b69636164,rev?*
G04 #@! TF.SameCoordinates,Original*
G04 #@! TF.FileFunction,Paste,Top*
G04 #@! TF.FilePolarity,Positive*
%FSLAX46Y46*%
G04 Gerber Fmt 4.6, Leading zero omitted, Abs format (unit mm)*
G04 Created by KiCad (PCBNEW 5.1.6) date 2020-07-06 21:48:25*
%MOMM*%
%LPD*%
G01*
G04 APERTURE LIST*
%ADD10R,0.800000X0.900000*%
%ADD11R,3.150000X1.000000*%
%ADD12R,0.950000X0.502500*%
%ADD13R,0.650000X0.950000*%
%ADD14R,0.700000X0.950000*%
%ADD15R,1.000000X0.550000*%
G04 APERTURE END LIST*
D10*
X120900000Y-87500000D03*
X121850000Y-89500000D03*
X119950000Y-89500000D03*
D11*
X94525000Y-89010000D03*
X89475000Y-89010000D03*
X94525000Y-86470000D03*
X89475000Y-86470000D03*
X94525000Y-83930000D03*
X89475000Y-83930000D03*
X94525000Y-81390000D03*
X89475000Y-81390000D03*
D12*
X122325000Y-85425000D03*
D13*
X122175000Y-85650000D03*
D14*
X119850000Y-84375000D03*
D15*
X119700000Y-84575000D03*
D13*
X122175000Y-84350000D03*
D12*
X122325000Y-84575000D03*
D15*
X119700000Y-85425000D03*
D14*
X119850000Y-85625000D03*
D13*
X120800000Y-84375000D03*
X120800000Y-85625000D03*
D12*
X128779545Y-85425000D03*
D13*
X128629545Y-85650000D03*
D14*
X126304545Y-84375000D03*
D15*
X126154545Y-84575000D03*
D13*
X128629545Y-84350000D03*
D12*
X128779545Y-84575000D03*
D15*
X126154545Y-85425000D03*
D14*
X126304545Y-85625000D03*
D13*
X127254545Y-84375000D03*
X127254545Y-85625000D03*
D12*
X135234090Y-85425000D03*
D13*
X135084090Y-85650000D03*
D14*
X132759090Y-84375000D03*
D15*
X132609090Y-84575000D03*
D13*
X135084090Y-84350000D03*
D12*
X135234090Y-84575000D03*
D15*
X132609090Y-85425000D03*
D14*
X132759090Y-85625000D03*
D13*
X133709090Y-84375000D03*
X133709090Y-85625000D03*
D12*
X141688635Y-85425000D03*
D13*
X141538635Y-85650000D03*
D14*
X139213635Y-84375000D03*
D15*
X139063635Y-84575000D03*
D13*
X141538635Y-84350000D03*
D12*
X141688635Y-84575000D03*
D15*
X139063635Y-85425000D03*
D14*
X139213635Y-85625000D03*
D13*
X140163635Y-84375000D03*
X140163635Y-85625000D03*
D12*
X148143180Y-85425000D03*
D13*
X147993180Y-85650000D03*
D14*
X145668180Y-84375000D03*
D15*
X145518180Y-84575000D03*
D13*
X147993180Y-84350000D03*
D12*
X148143180Y-84575000D03*
D15*
X145518180Y-85425000D03*
D14*
X145668180Y-85625000D03*
D13*
X146618180Y-84375000D03*
X146618180Y-85625000D03*
D12*
X154597725Y-85425000D03*
D13*
X154447725Y-85650000D03*
D14*
X152122725Y-84375000D03*
D15*
X151972725Y-84575000D03*
D13*
X154447725Y-84350000D03*
D12*
X154597725Y-84575000D03*
D15*
X151972725Y-85425000D03*
D14*
X152122725Y-85625000D03*
D13*
X153072725Y-84375000D03*
X153072725Y-85625000D03*
D12*
X161052270Y-85425000D03*
D13*
X160902270Y-85650000D03*
D14*
X158577270Y-84375000D03*
D15*
X158427270Y-84575000D03*
D13*
X160902270Y-84350000D03*
D12*
X161052270Y-84575000D03*
D15*
X158427270Y-85425000D03*
D14*
X158577270Y-85625000D03*
D13*
X159527270Y-84375000D03*
X159527270Y-85625000D03*
D12*
X167506815Y-85425000D03*
D13*
X167356815Y-85650000D03*
D14*
X165031815Y-84375000D03*
D15*
X164881815Y-84575000D03*
D13*
X167356815Y-84350000D03*
D12*
X167506815Y-84575000D03*
D15*
X164881815Y-85425000D03*
D14*
X165031815Y-85625000D03*
D13*
X165981815Y-84375000D03*
X165981815Y-85625000D03*
D12*
X173961360Y-85425000D03*
D13*
X173811360Y-85650000D03*
D14*
X171486360Y-84375000D03*
D15*
X171336360Y-84575000D03*
D13*
X173811360Y-84350000D03*
D12*
X173961360Y-84575000D03*
D15*
X171336360Y-85425000D03*
D14*
X171486360Y-85625000D03*
D13*
X172436360Y-84375000D03*
X172436360Y-85625000D03*
D12*
X180415905Y-85425000D03*
D13*
X180265905Y-85650000D03*
D14*
X177940905Y-84375000D03*
D15*
X177790905Y-84575000D03*
D13*
X180265905Y-84350000D03*
D12*
X180415905Y-84575000D03*
D15*
X177790905Y-85425000D03*
D14*
X177940905Y-85625000D03*
D13*
X178890905Y-84375000D03*
X178890905Y-85625000D03*
D12*
X186870450Y-85425000D03*
D13*
X186720450Y-85650000D03*
D14*
X184395450Y-84375000D03*
D15*
X184245450Y-84575000D03*
D13*
X186720450Y-84350000D03*
D12*
X186870450Y-84575000D03*
D15*
X184245450Y-85425000D03*
D14*
X184395450Y-85625000D03*
D13*
X185345450Y-84375000D03*
X185345450Y-85625000D03*
D12*
X193325000Y-85425000D03*
D13*
X193175000Y-85650000D03*
D14*
X190850000Y-84375000D03*
D15*
X190700000Y-84575000D03*
D13*
X193175000Y-84350000D03*
D12*
X193325000Y-84575000D03*
D15*
X190700000Y-85425000D03*
D14*
X190850000Y-85625000D03*
D13*
X191800000Y-84375000D03*
X191800000Y-85625000D03*
G36*
G01*
X118556250Y-87950000D02*
X118043750Y-87950000D01*
G75*
G02*
X117825000Y-87731250I0J218750D01*
G01*
X117825000Y-87293750D01*
G75*
G02*
X118043750Y-87075000I218750J0D01*
G01*
X118556250Y-87075000D01*
G75*
G02*
X118775000Y-87293750I0J-218750D01*
G01*
X118775000Y-87731250D01*
G75*
G02*
X118556250Y-87950000I-218750J0D01*
G01*
G37*
G36*
G01*
X118556250Y-89525000D02*
X118043750Y-89525000D01*
G75*
G02*
X117825000Y-89306250I0J218750D01*
G01*
X117825000Y-88868750D01*
G75*
G02*
X118043750Y-88650000I218750J0D01*
G01*
X118556250Y-88650000D01*
G75*
G02*
X118775000Y-88868750I0J-218750D01*
G01*
X118775000Y-89306250D01*
G75*
G02*
X118556250Y-89525000I-218750J0D01*
G01*
G37*
M02*
